:SAMPLES-PER-SECOND 30
:FULLY-SPECIFIED
:DEGREES
642
root  -79.0941 40.8322 5.18285 -177.981 16.6471 176.666
RightUpLeg  -19.3748 -29.1754 -1.8502
RightLeg  11.2538 -18.2703 1.07238
RightFoot  -5.04586 -0.0111174 -0.428429
RightToes  -2.9104e-010 0 -3.6325e-017
Spine  3.60721 -0.8517 -4.05994
Spine1  7.40231 -0.574127 -1.64904
HEad  -17.6279 -4.63962 -1.81682
LeftShoulder1  -0.115153 3.81224 -31.2756
LeftArm  -9.35401 -4.63007 -31.9409
LeftForeArm  31.1295 -7.54595 -6.55477
LeftHand  -0.0279543 4.87725 0.667789
RightShoulder  -0.856822 -5.91818 28.8984
RightArm  8.64471 15.5355 46.7157
RightForeArm  19.6924 5.23974 5.76165
RightHand  -0.258556 3.78969 -3.43449
LeftUpLeg  0.375726 7.50012 -0.493952
LeftLeg  4.08594 33.316 0.306549
LeftFoot  -3.06622 0.147341 -1.75613
LeftToes  -3.37426e-010 -1.91496e-010 5.23909e-011
643
root  -79.0194 40.8014 4.92911 -178.77 21.0144 176.474
RightUpLeg  -18.4901 -29.8467 -2.39109
RightLeg  12.5205 -17.7906 -0.404554
RightFoot  -5.14487 0.0672095 -1.8834
RightToes  -2.9104e-010 0 -3.6325e-017
Spine  3.22127 -0.804476 -3.38477
Spine1  7.48452 -0.551595 -1.57286
HEad  -17.3544 -5.87082 -0.418252
LeftShoulder1  -0.159393 3.93384 -30.9289
LeftArm  -9.91721 -3.51714 -31.2484
LeftForeArm  28.4829 -8.20534 -6.209
LeftHand  -0.00719625 7.16415 2.07135
RightShoulder  -0.938257 -6.1541 28.8275
RightArm  0.531525 14.7796 43.0504
RightForeArm  8.30335 2.96536 2.57308
RightHand  -0.568814 6.42264 -5.95646
LeftUpLeg  2.25286 8.07613 -0.449781
LeftLeg  3.54066 36.9673 -0.33733
LeftFoot  -3.47786 0.186341 -2.41071
LeftToes  -3.37426e-010 -1.91496e-010 5.23909e-011
644
root  -78.8435 40.7652 4.63077 -179.488 25.5994 176.711
RightUpLeg  -15.8127 -24.7487 -3.99061
RightLeg  11.8904 -19.7166 -0.536091
RightFoot  -5.10105 0.0671357 -1.88324
RightToes  -2.9104e-010 0 -3.6325e-017
Spine  2.98995 -0.743349 -2.56522
Spine1  7.53801 -0.603824 -1.2076
HEad  -17.356 -6.7747 0.869024
LeftShoulder1  -0.174692 3.97862 -30.6742
LeftArm  -9.07277 -1.47537 -29.9708
LeftForeArm  25.7825 -9.63349 -6.35016
LeftHand  0.00354918 7.48895 2.22941
RightShoulder  -1.0021 -6.32291 28.9993
RightArm  -4.0842 14.7228 39.3133
RightForeArm  -3.6203 2.23996 1.11367
RightHand  -0.7209 6.37698 -7.45843
LeftUpLeg  4.00989 8.88582 0.152146
LeftLeg  3.90501 40.5454 -0.466179
LeftFoot  -4.0698 0.231 -3.24808
LeftToes  -3.37426e-010 -1.91496e-010 5.23909e-011
645
root  -78.5656 40.7244 4.2996 -179.679 29.903 176.906
RightUpLeg  -13.7965 -19.3986 -4.74209
RightLeg  10.6038 -21.706 -0.0298037
RightFoot  -3.80421 0.0368284 -0.967051
RightToes  -2.9104e-010 0 -3.6325e-017
Spine  2.22842 -0.913512 -1.58899
Spine1  7.65865 -0.84457 -0.943714
HEad  -17.4444 -7.79942 1.46307
LeftShoulder1  -0.199895 4.05212 -30.3145
LeftArm  -8.81842 0.831796 -29.5246
LeftForeArm  24.5902 -10.6135 -6.14292
LeftHand  0.029384 8.07255 3.04475
RightShoulder  -0.955995 -6.26195 28.097
RightArm  -6.56951 14.301 36.5547
RightForeArm  -9.28305 2.92661 0.456805
RightHand  -0.569573 7.04099 -5.63103
LeftUpLeg  5.34029 9.6952 0.813076
LeftLeg  4.28203 43.8331 -0.760461
LeftFoot  -4.62671 0.270738 -4.14906
LeftToes  -3.37426e-010 -1.91496e-010 5.23909e-011
646
root  -78.1692 40.7031 3.97246 -179.656 34.3405 177.49
RightUpLeg  -12.2339 -14.8537 -4.55091
RightLeg  8.47923 -24.9114 1.64284
RightFoot  -1.51784 0.143137 -1.7068
RightToes  -2.9104e-010 0 -3.6325e-017
Spine  1.59574 -1.01674 -0.57971
Spine1  8.00363 -1.15303 -0.124214
HEad  -17.7954 -7.4476 2.77497
LeftShoulder1  -0.194076 4.03984 -30.0797
LeftArm  -8.99648 2.72887 -29.202
LeftForeArm  23.6802 -10.6353 -5.97479
LeftHand  0.0331704 7.55876 3.71281
RightShoulder  -0.918903 -6.19882 27.5258
RightArm  -5.9281 14.4983 33.8071
RightForeArm  -10.3051 4.30548 0.946919
RightHand  -0.380502 6.13753 -4.17064
LeftUpLeg  7.02655 10.7051 2.04184
LeftLeg  4.30289 46.8427 -1.44569
LeftFoot  -5.00891 0.337909 -5.5523
LeftToes  -3.37426e-010 -1.91496e-010 5.23909e-011
